<svg width="152" height="48" viewBox="0 0 152 48" fill="none" xmlns="http://www.w3.org/2000/svg">
<g clip-path="url(#clip0_6845_8650)">
<path d="M27.962 3.57143C28.5469 2.2381 29.1805 1.04762 29.9116 0L25.0863 0.761905C25.0375 0.857143 24.9888 0.952381 24.94 1.04762C24.8426 1.19048 24.7938 1.33333 24.6963 1.52381C22.3568 5.71429 20.992 9.66667 20.2122 13.9524C20.8458 15.6667 21.4307 17.4762 21.9181 19.381C22.308 20.9524 22.698 22.5238 22.9904 24.1905C23.0879 24.6667 23.1854 25.1429 23.2341 25.619C23.3803 25.1429 23.5266 24.619 23.7215 24.1429C23.9165 23.5238 24.1602 22.9524 24.3552 22.3333C24.6963 16.0952 25.5737 9.71429 27.4258 4.76191C27.5233 4.57143 27.5721 4.38095 27.6696 4.19048C27.767 3.95238 27.8645 3.76191 27.962 3.57143Z" fill="#017A33"/>
<path d="M36.8817 28.8095C36.8817 25.619 35.9556 22.6666 34.3471 20.1904L33.9085 21.2857C35.2245 23.5238 35.9556 26.0952 35.9556 28.8095C35.9556 34.3809 32.8849 39.4285 27.9133 42.1428C27.8646 42.3333 27.8646 42.5714 27.8158 42.7619C27.8158 42.8095 27.8158 42.8095 27.8158 42.8571C27.8158 42.8571 27.8158 42.8571 27.8158 42.9047C27.8158 43 27.7671 43.1428 27.7671 43.238C27.7671 43.2857 27.7671 43.3333 27.7671 43.3809C27.8646 43.3333 28.0108 43.238 28.1083 43.1904C33.4698 40.2857 36.8817 34.8095 36.8817 28.8095Z" fill="#017A33"/>
<path d="M12.6085 42.0957C12.5598 42.0957 12.5598 42.0481 12.511 42.0481C7.68565 39.2862 4.6637 34.2386 4.6637 28.81C4.6637 26.0005 5.44356 23.429 6.75957 21.1433L6.27216 20.0957C4.61496 22.6195 3.64014 25.6195 3.64014 28.81C3.64014 34.6671 6.85705 40.0481 12.0724 42.9052C12.2186 43.0005 12.4135 43.0957 12.5598 43.1433C12.6085 43.1909 12.706 43.1909 12.7547 43.2386C12.706 42.9052 12.6572 42.5243 12.6572 42.0957C12.706 42.0957 12.6572 42.0957 12.6085 42.0957Z" fill="#017A33"/>
<path d="M22.7955 29.4765C22.7468 29.0003 22.6493 28.5241 22.6006 28.0479C22.4056 26.7146 22.2106 25.4289 21.9669 24.1908C21.382 21.2384 20.6509 18.5717 19.8711 16.0955C19.7736 15.8574 19.7248 15.5717 19.6274 15.3336C19.5299 15.0955 19.4324 14.8574 19.3837 14.6193C16.2155 6.00028 11.8775 1.00028 8.36816 0.857422C11.8288 5.42885 14.2658 15.0955 15.923 24.3812C16.0205 24.8098 16.0693 25.2384 16.1667 25.6669C17.239 28.286 18.1164 31.0955 18.7988 33.8574C18.945 34.5241 19.0912 35.1908 19.2374 35.8098C19.4324 36.7146 19.5786 37.6669 19.7248 38.5717C19.8711 39.4765 19.9686 40.3812 20.0173 41.2384C20.066 42.2384 20.1148 43.1431 20.1148 44.0479C20.1148 44.3812 20.1148 44.6669 20.066 45.0003C20.066 45.1908 20.066 45.3336 20.0173 45.5241C20.0173 45.6193 20.0173 45.7622 19.9686 45.8574C19.9686 46.0003 19.9198 46.0955 19.9198 46.2384H19.9686C20.066 46.2384 20.2123 46.2384 20.3097 46.2384C20.6022 46.2384 20.9434 46.2384 21.2358 46.2384C21.4308 46.2384 21.577 46.1908 21.772 46.1908C21.9669 46.1908 22.1132 46.1431 22.3081 46.1431C22.6493 46.0955 22.9905 46.0479 23.3804 46.0003C23.3804 45.8574 23.3804 45.6669 23.4292 45.5241C23.4292 45.2384 23.4292 45.0003 23.4779 44.7622C23.4779 44.4288 23.4779 44.0955 23.5267 43.8098C23.5267 43.0003 23.5754 42.2384 23.5754 41.4288C23.5754 37.8098 23.4292 34.3812 23.088 31.1431C22.893 30.5717 22.8443 30.0003 22.7955 29.4765Z" fill="#017A33"/>
<path d="M30.2528 0.761719C29.5704 1.80934 28.9368 2.99981 28.4006 4.28553C29.4729 5.99981 30.4478 7.90458 31.0327 9.28553C31.4713 6.28553 31.5201 3.66648 30.2528 0.761719Z" fill="#012269"/>
<path d="M14.4607 46.8566C15.1431 47.0471 15.8254 47.2376 16.5078 47.3804C16.8977 47.4757 17.3364 47.5233 17.7263 47.5709C18.36 47.6662 19.0423 47.7138 19.676 47.7138C19.8709 47.7138 20.1146 47.7138 20.3096 47.7138C20.6995 47.7138 21.0407 47.7138 21.3819 47.6662C22.0643 47.6185 22.7467 47.5709 23.429 47.4281C23.7215 47.3804 24.0139 47.3328 24.3064 47.2852C24.3551 47.2852 24.4526 47.2376 24.5014 47.2376C24.7451 47.19 24.94 47.1423 25.1837 47.0947C25.3299 47.0471 25.4274 47.0471 25.5737 46.9995C25.6711 46.9519 25.8174 46.9519 25.9148 46.9043C26.1585 46.8566 26.4023 46.7614 26.646 46.6662C26.8409 46.6185 27.0359 46.5233 27.2309 46.4757C34.542 43.7614 39.7573 36.8566 39.7573 28.7614C39.7573 24.3804 38.2463 20.3328 35.6631 17.1423L34.9807 18.7614C37.0278 21.6185 38.2463 25.0471 38.2463 28.7614C38.2463 35.9043 33.8596 42.0471 27.5233 44.7138C27.3283 44.809 27.1334 44.8566 26.9384 44.9519C26.7434 45.0471 26.5485 45.0947 26.3535 45.1423C26.4023 44.9519 26.4023 44.7138 26.451 44.4757C26.4997 44.2376 26.5485 43.9995 26.5485 43.7138C26.5972 43.3804 26.646 42.9995 26.7434 42.6185C26.7922 42.2376 26.8897 41.8566 26.9384 41.4281C27.7183 36.9519 28.9855 30.2376 30.6427 23.7614C32.2512 17.5233 34.2983 11.4281 36.6379 8.09473C35.1269 8.5233 33.4697 9.71377 31.8125 11.5233C31.5688 11.7614 31.3738 12.0471 31.1301 12.2852C28.8881 14.9995 26.7434 18.8566 25.0862 23.4281C25.0375 23.6185 24.94 23.809 24.8913 24.0471C24.8425 24.2376 24.7451 24.4757 24.6963 24.6662C24.5501 25.0947 24.4039 25.5233 24.3064 25.9519C24.1114 26.6662 23.9165 27.3328 23.7215 28.0947C24.0139 30.0947 24.2089 32.0947 24.3551 34.19C24.4526 35.6662 24.5013 37.1423 24.5501 38.6185C24.5501 39.5709 24.5988 40.4757 24.5988 41.4281C24.5988 42.0947 24.5988 42.809 24.5501 43.4757C24.5501 43.809 24.5501 44.1423 24.5014 44.4757C24.5014 44.7138 24.5013 44.9519 24.4526 45.1423C24.4526 45.3328 24.4526 45.5709 24.4039 45.7614C24.2089 45.809 24.0627 45.8566 23.8677 45.8566C23.6727 45.9043 23.5265 45.9043 23.3316 45.9519C22.9904 45.9995 22.6492 46.0471 22.2593 46.0947C22.0643 46.0947 21.9181 46.1423 21.7231 46.1423C21.5769 46.19 21.3819 46.19 21.2357 46.19C20.9432 46.19 20.6021 46.19 20.3096 46.19C20.2121 46.19 20.0659 46.19 19.9684 46.19H19.9197C19.8222 46.19 19.7247 46.19 19.6272 46.19C19.5298 46.19 19.481 46.19 19.3835 46.19C19.3348 46.19 19.286 46.19 19.2373 46.19C19.0911 46.19 18.9936 46.19 18.8474 46.1423C18.8961 45.9043 18.8961 45.6662 18.8961 45.4757C18.8961 45.2852 18.9449 45.0947 18.9449 44.9043C18.9449 44.6185 18.9936 44.2852 18.9936 43.9519C18.9936 43.0471 18.9936 42.0947 18.8961 41.1423C18.6524 38.0471 17.97 34.6185 16.9952 31.2376C16.7028 30.2376 16.3616 29.2376 16.0204 28.2376C15.7279 27.4281 15.4355 26.6662 15.0943 25.9043C14.8993 25.3804 14.6556 24.8566 14.4607 24.3804C11.8774 18.6662 8.51426 14.0947 5.19986 12.9995C7.4907 15.9995 9.19664 20.1423 10.5126 24.5233C12.2186 30.3328 13.1934 36.5233 13.6808 40.9519C13.7296 41.5709 13.827 42.1423 13.8758 42.7138C13.9245 43.0947 13.9733 43.4757 13.9733 43.809C13.9733 44.0471 14.022 44.2376 14.022 44.4757C14.022 44.7614 14.0707 44.9995 14.0707 45.19C13.8758 45.1423 13.6808 45.0471 13.5346 44.9995C13.3396 44.9043 13.1447 44.8566 12.9984 44.7614C6.75958 41.9519 2.42162 35.8566 2.42162 28.809C2.42162 25.0471 3.64015 21.6185 5.68727 18.7614L5.0049 17.1423C2.47036 20.3804 0.910645 24.4281 0.910645 28.809C0.910645 36.7614 5.97972 43.5709 13.0959 46.3804C13.2909 46.4281 13.4371 46.5233 13.6321 46.5709C13.827 46.6185 13.9733 46.7138 14.1682 46.7614L14.4607 46.8566Z" fill="#012269"/>
<path d="M47.9947 6.80971L54.0874 14.4764H57.353V0.238281H53.405V7.61923L47.5561 0.238281H44.0955V14.4764H47.9947V6.80971Z" fill="#012269"/>
<path d="M66.4189 14.7143C70.8543 14.7143 74.2662 11.4762 74.2662 7.38095V7.33333C74.2662 3.14286 70.903 0 66.4189 0C61.9834 0 58.5715 3.23809 58.5715 7.33333V7.38095C58.5715 11.5714 61.9347 14.7143 66.4189 14.7143ZM70.1719 7.38095C70.1719 9.52381 68.5635 11.0952 66.4676 11.0952C64.323 11.0952 62.7145 9.47619 62.7145 7.33333V7.28571C62.7145 5.14286 64.323 3.57143 66.4189 3.57143C68.5635 3.57143 70.1719 5.19048 70.1719 7.38095Z" fill="#012269"/>
<path d="M88.2548 10.3811C88.2548 8.42876 87.2312 7.524 86.1102 6.95257C86.9875 6.23828 87.4749 5.2859 87.4749 4.14304C87.4749 3.14304 87.085 2.23828 86.4026 1.57161C85.5253 0.714472 84.1605 0.238281 82.4546 0.238281H75.4846V14.4764H82.5521C86.1102 14.4764 88.2548 12.9526 88.2548 10.3811ZM79.3839 8.95257H82.4546C84.258 8.95257 84.258 9.71447 84.258 9.95257V10.0002C84.258 10.2383 84.258 11.0002 82.5521 11.0002H79.3839V8.95257ZM83.5269 4.66685C83.5269 4.90495 83.5269 5.61923 81.7722 5.61923H79.3839V3.66685H81.9672C82.9908 3.66685 83.5269 4.00019 83.5269 4.66685Z" fill="#012269"/>
<path d="M100.148 10.9049H93.2263V0.238281H89.2783V14.4764H100.148V10.9049Z" fill="#012269"/>
<path d="M112.479 11.0002H104.924V9.04781H111.504V5.57161H104.924V3.71447H112.382V0.238281H100.976V14.4764H112.479V11.0002Z" fill="#012269"/>
<path d="M56.5731 22.4761C56.5731 21.0475 56.1344 19.9046 55.2571 19.0475C54.2335 18.0951 52.7226 17.5713 50.8704 17.5713H44.0466V31.8094H47.9947V27.5237H49.7006L52.6738 31.8094H57.353L53.7949 26.8094C55.5983 25.9999 56.5731 24.4761 56.5731 22.4761ZM48.0434 21.1427H50.6267C51.9427 21.1427 52.5763 21.6189 52.5763 22.6189V22.6665C52.5763 23.5713 51.8452 24.0951 50.6754 24.0951H48.0434V21.1427Z" fill="#012269"/>
<path d="M61.7884 26.4284H68.3684V22.9046H61.7884V21.0951H69.2458V17.5713H57.8403V31.857H69.3432V28.3332H61.7884V26.4284Z" fill="#012269"/>
<path d="M76.9957 22.9525C74.5587 22.3335 74.315 22.143 74.315 21.6192V21.5716C74.315 21.143 74.8511 20.8573 75.6797 20.8573C76.7033 20.8573 77.7756 21.2859 79.0429 22.0954L79.3841 22.3811L81.4799 19.4763L81.1387 19.2382C79.579 18.0478 77.7756 17.4287 75.6797 17.4287C72.5603 17.4287 70.3669 19.2859 70.3669 21.9049C70.3669 24.9525 72.609 25.762 75.3385 26.4287C77.8243 27.0478 77.8243 27.3811 77.8243 27.7144V27.762C77.8243 28.524 76.6546 28.5716 76.2646 28.5716C74.8999 28.5716 73.7301 28.0954 72.4141 27.0478L72.0729 26.762L69.6846 29.524L70.0258 29.8097C71.7317 31.2382 73.925 32.0478 76.2159 32.0478C79.579 32.0478 81.7724 30.2382 81.7724 27.4763V27.4287C81.7724 24.5716 79.4815 23.5716 76.9957 22.9525Z" fill="#012269"/>
<path d="M86.8414 26.4284H93.4215V22.9046H86.8414V21.0951H94.3476V17.5713H82.9421V31.857H94.445V28.3332H86.8414V26.4284Z" fill="#012269"/>
<path d="M100.976 17.4766L94.6399 31.8099H98.7341L100.001 28.8099H105.265L106.533 31.8099H110.724L104.388 17.4766H100.976ZM103.803 25.3813H101.464L102.633 22.6194L103.803 25.3813Z" fill="#012269"/>
<path d="M123.885 22.4761C123.885 21.0475 123.446 19.9046 122.569 19.0475C121.545 18.0951 120.034 17.5713 118.182 17.5713H111.358V31.8094H115.306V27.5237H117.012L119.985 31.8094H124.664L121.106 26.8094C122.91 25.9999 123.885 24.4761 123.885 22.4761ZM115.306 21.1427H117.889C119.205 21.1427 119.839 21.6189 119.839 22.6189V22.6665C119.839 23.5713 119.108 24.0951 117.938 24.0951H115.306V21.1427Z" fill="#012269"/>
<path d="M135.582 27.0475C134.51 27.9999 133.633 28.5237 132.219 28.5237C130.172 28.5237 128.612 26.9047 128.612 24.7618V24.7142C128.612 22.5713 130.172 20.9999 132.219 20.9999C133.389 20.9999 134.364 21.4285 135.485 22.3809L135.826 22.6666L138.361 19.8571L138.068 19.5713C136.46 18.0475 134.656 17.3809 132.268 17.3809C127.881 17.3809 124.567 20.5237 124.567 24.7142V24.7618C124.567 28.857 127.881 32.0951 132.171 32.0951C134.656 32.0951 136.46 31.3332 138.214 29.5713L138.507 29.238L135.924 26.7618L135.582 27.0475Z" fill="#012269"/>
<path d="M147.963 17.5713V22.9046H143.186V17.5713H139.238V31.857H143.186V26.4761H147.963V31.857H151.911V17.5713H147.963Z" fill="#012269"/>
<path d="M44.7778 35.4766H46.1913V47.8099H44.7778V35.4766Z" fill="#017A33"/>
<path d="M49.0183 35.4766H50.3343L58.2791 45.3337V35.4766H59.6439V47.8099H58.5228L50.3831 37.7147V47.8099H49.0183V35.4766Z" fill="#017A33"/>
<path d="M61.5935 46.0004L62.4708 45.0004C63.7869 46.1433 65.0541 46.7623 66.8088 46.7623C68.5147 46.7623 69.6358 45.9052 69.6358 44.6671V44.6195C69.6358 43.4766 69.0022 42.8099 66.3701 42.2861C63.4944 41.6671 62.1297 40.7623 62.1297 38.7147V38.6671C62.1297 36.7147 63.8843 35.2861 66.2727 35.2861C68.1248 35.2861 69.4408 35.8099 70.7081 36.8099L69.8795 37.9052C68.7097 36.9528 67.5399 36.5718 66.2239 36.5718C64.5667 36.5718 63.5432 37.429 63.5432 38.5718C63.5432 39.7147 64.1768 40.3814 66.955 40.9528C69.782 41.5718 71.0493 42.5718 71.0493 44.429V44.4766C71.0493 46.5718 69.2459 47.9528 66.7601 47.9528C64.7129 48.0004 63.1045 47.3338 61.5935 46.0004Z" fill="#017A33"/>
<path d="M76.1184 36.7623H71.8779V35.4766H81.8211V36.7623H77.5806V47.8099H76.1184V36.7623Z" fill="#017A33"/>
<path d="M83.7708 35.4766H85.1842V47.8099H83.7708V35.4766Z" fill="#017A33"/>
<path d="M91.3257 36.7623H87.0852V35.4766H96.9797V36.7623H92.7392V47.8099H91.2769V36.7623H91.3257Z" fill="#017A33"/>
<path d="M98.6367 42.6673V35.5244H100.05V42.572C100.05 45.2387 101.512 46.7149 103.901 46.7149C106.24 46.7149 107.703 45.3339 107.703 42.6673V35.5244H109.116V42.572C109.116 46.1435 107.02 48.0006 103.852 48.0006C100.781 48.0006 98.6367 46.1435 98.6367 42.6673Z" fill="#017A33"/>
<path d="M114.965 36.7623H110.725V35.4766H120.619V36.7623H116.427V47.8099H114.965V36.7623Z" fill="#017A33"/>
<path d="M122.471 35.4766H131.586V36.7623H123.885V40.9528H130.757V42.2385H123.885V46.5242H131.683V47.8099H122.471V35.4766Z" fill="#017A33"/>
</g>
<defs>
<clipPath id="clip0_6845_8650">
<rect width="151" height="48" fill="white" transform="translate(0.910645)"/>
</clipPath>
</defs>
</svg>
